# Blender v2.78 (sub 0) OBJ File: ''
# www.blender.org
mtllib untitled.mtl
o Plane
v -5.000000 0.403168 5.000000
v 5.000000 0.000000 5.000000
v -5.000000 0.000000 -5.000000
v 5.000000 0.000000 -5.000000
v -5.000000 0.000000 -4.000000
v -5.000000 0.000000 -3.000000
v -5.000000 0.000000 -2.000000
v -5.000000 0.000000 -1.000000
v -5.000000 0.403168 0.000000
v -5.000000 0.403168 1.000000
v -5.000000 0.403168 2.000000
v -5.000000 0.403168 3.000000
v -5.000000 0.403168 4.000000
v -4.000000 0.403168 5.000000
v -3.000000 0.403168 5.000000
v -2.000000 0.403168 5.000000
v -1.000000 0.403168 5.000000
v 0.000000 0.403168 5.000000
v 1.000000 0.000000 5.000000
v 2.000000 0.000000 5.000000
v 3.000000 0.000000 5.000000
v 4.000000 0.000000 5.000000
v 5.000000 0.000000 4.000000
v 5.000000 0.000000 3.000000
v 5.000000 0.000000 2.000000
v 5.000000 0.000000 1.000000
v 5.000000 0.000000 0.000000
v 5.000000 0.000000 -1.000000
v 5.000000 0.000000 -2.000000
v 5.000000 0.000000 -3.000000
v 5.000000 0.000000 -4.000000
v 4.000000 0.000000 -5.000000
v 3.000000 0.000000 -5.000000
v 2.000000 0.000000 -5.000000
v 1.000000 0.000000 -5.000000
v 0.000000 0.000000 -5.000000
v -1.000000 0.000000 -5.000000
v -2.000000 0.000000 -5.000000
v -3.000000 0.000000 -5.000000
v -4.000000 0.000000 -5.000000
v -4.000000 0.403168 4.000000
v -4.000000 0.403168 3.000000
v -4.000000 0.403168 2.000000
v -4.000000 0.403168 1.000000
v -4.000000 0.403168 0.000000
v -4.000000 0.000000 -1.000000
v -4.000000 0.000000 -2.000000
v -4.000000 0.000000 -3.000000
v -4.000000 0.000000 -4.000000
v -3.000000 0.403168 4.000000
v -3.000000 1.125689 3.000000
v -3.000000 1.125689 2.000000
v -3.000000 0.403168 1.000000
v -3.000000 0.403168 0.000000
v -3.000000 0.000000 -1.000000
v -3.000000 0.000000 -2.000000
v -3.000000 0.000000 -3.000000
v -3.000000 0.000000 -4.000000
v -2.000000 0.403168 4.000000
v -2.000000 1.125689 3.000000
v -2.000000 1.125689 2.000000
v -2.000000 0.403168 1.000000
v -2.000000 0.403168 0.000000
v -2.000000 0.000000 -1.000000
v -2.000000 0.000000 -2.000000
v -2.000000 0.000000 -3.000000
v -2.000000 0.000000 -4.000000
v -1.000000 0.403168 4.000000
v -1.000000 0.403168 3.000000
v -1.000000 0.403168 2.000000
v -1.000000 0.403168 1.000000
v -1.000000 0.403168 0.000000
v -1.000000 0.000000 -1.000000
v -1.000000 0.000000 -2.000000
v -1.000000 0.000000 -3.000000
v -1.000000 0.000000 -4.000000
v 0.000000 0.403168 4.000000
v 0.000000 0.403168 3.000000
v 0.000000 0.403168 2.000000
v 0.000000 0.403168 1.000000
v 0.000000 0.403168 0.000000
v 0.000000 0.000000 -1.000000
v 0.000000 0.000000 -2.000000
v 0.000000 0.000000 -3.000000
v 0.000000 0.000000 -4.000000
v 1.000000 0.000000 4.000000
v 1.000000 0.000000 3.000000
v 1.000000 0.000000 2.000000
v 1.000000 0.000000 1.000000
v 1.000000 0.000000 0.000000
v 1.000000 0.000000 -1.000000
v 1.000000 0.000000 -2.000000
v 1.000000 0.000000 -3.000000
v 1.000000 0.000000 -4.000000
v 2.000000 0.000000 4.000000
v 2.000000 0.000000 3.000000
v 2.000000 0.000000 2.000000
v 2.000000 0.000000 1.000000
v 2.000000 0.000000 0.000000
v 2.000000 0.000000 -1.000000
v 2.000000 0.000000 -2.000000
v 2.000000 5.000000 -3.000000
v 2.000000 5.000000 -4.000000
v 3.000000 0.000000 4.000000
v 3.000000 0.000000 3.000000
v 3.000000 0.000000 2.000000
v 3.000000 0.000000 1.000000
v 3.000000 0.000000 0.000000
v 3.000000 0.000000 -1.000000
v 3.000000 0.000000 -2.000000
v 3.000000 5.000000 -3.000000
v 3.000000 5.000000 -4.000000
v 4.000000 0.000000 4.000000
v 4.000000 0.000000 3.000000
v 4.000000 0.000000 2.000000
v 4.000000 0.000000 1.000000
v 4.000000 0.000000 0.000000
v 4.000000 0.000000 -1.000000
v 4.000000 0.000000 -2.000000
v 4.000000 0.000000 -3.000000
v 4.000000 0.000000 -4.000000
vn 0.0000 1.0000 0.0000
vn -0.6804 0.2722 -0.6804
vn 0.0000 0.1961 -0.9806
vn 0.6804 0.2722 -0.6804
vn 0.0000 0.9275 -0.3739
vn -0.3217 0.8905 0.3217
vn -0.5856 0.8106 0.0000
vn -0.3217 0.8905 -0.3217
vn 0.0000 0.8106 0.5856
vn 0.0000 0.8106 -0.5856
vn 0.3217 0.8905 0.3217
vn 0.5856 0.8106 0.0000
vn 0.3217 0.8905 -0.3217
vn 0.3739 0.9275 0.0000
vn 0.1939 0.9617 -0.1939
vn -0.6804 0.2722 0.6804
vn -0.9806 0.1961 -0.0000
vn 0.0000 0.1961 0.9806
vn 0.6804 0.2722 0.6804
vn 0.9806 0.1961 0.0000
usemtl None
s off
f 121//1 31//1 4//1 32//1
f 5//1 49//1 40//1 3//1
f 49//1 58//1 39//1 40//1
f 58//1 67//1 38//1 39//1
f 67//1 76//1 37//1 38//1
f 76//1 85//1 36//1 37//1
f 85//1 94//1 35//1 36//1
f 94//2 103//2 34//2 35//2
f 103//3 112//3 33//3 34//3
f 112//4 121//4 32//4 33//4
f 1//1 14//1 41//1 13//1
f 13//1 41//1 42//1 12//1
f 12//1 42//1 43//1 11//1
f 11//1 43//1 44//1 10//1
f 10//1 44//1 45//1 9//1
f 9//5 45//5 46//5 8//5
f 8//1 46//1 47//1 7//1
f 7//1 47//1 48//1 6//1
f 6//1 48//1 49//1 5//1
f 14//1 15//1 50//1 41//1
f 41//6 50//6 51//6 42//6
f 42//7 51//7 52//7 43//7
f 43//8 52//8 53//8 44//8
f 44//1 53//1 54//1 45//1
f 45//5 54//5 55//5 46//5
f 46//1 55//1 56//1 47//1
f 47//1 56//1 57//1 48//1
f 48//1 57//1 58//1 49//1
f 15//1 16//1 59//1 50//1
f 50//9 59//9 60//9 51//9
f 51//1 60//1 61//1 52//1
f 52//10 61//10 62//10 53//10
f 53//1 62//1 63//1 54//1
f 54//5 63//5 64//5 55//5
f 55//1 64//1 65//1 56//1
f 56//1 65//1 66//1 57//1
f 57//1 66//1 67//1 58//1
f 16//1 17//1 68//1 59//1
f 59//11 68//11 69//11 60//11
f 60//12 69//12 70//12 61//12
f 61//13 70//13 71//13 62//13
f 62//1 71//1 72//1 63//1
f 63//5 72//5 73//5 64//5
f 64//1 73//1 74//1 65//1
f 65//1 74//1 75//1 66//1
f 66//1 75//1 76//1 67//1
f 17//1 18//1 77//1 68//1
f 68//1 77//1 78//1 69//1
f 69//1 78//1 79//1 70//1
f 70//1 79//1 80//1 71//1
f 71//1 80//1 81//1 72//1
f 72//5 81//5 82//5 73//5
f 73//1 82//1 83//1 74//1
f 74//1 83//1 84//1 75//1
f 75//1 84//1 85//1 76//1
f 18//14 19//14 86//14 77//14
f 77//14 86//14 87//14 78//14
f 78//14 87//14 88//14 79//14
f 79//14 88//14 89//14 80//14
f 80//14 89//14 90//14 81//14
f 81//15 90//15 91//15 82//15
f 82//1 91//1 92//1 83//1
f 83//1 92//1 93//1 84//1
f 84//1 93//1 94//1 85//1
f 19//1 20//1 95//1 86//1
f 86//1 95//1 96//1 87//1
f 87//1 96//1 97//1 88//1
f 88//1 97//1 98//1 89//1
f 89//1 98//1 99//1 90//1
f 90//1 99//1 100//1 91//1
f 91//1 100//1 101//1 92//1
f 92//16 101//16 102//16 93//16
f 93//17 102//17 103//17 94//17
f 20//1 21//1 104//1 95//1
f 95//1 104//1 105//1 96//1
f 96//1 105//1 106//1 97//1
f 97//1 106//1 107//1 98//1
f 98//1 107//1 108//1 99//1
f 99//1 108//1 109//1 100//1
f 100//1 109//1 110//1 101//1
f 101//18 110//18 111//18 102//18
f 102//1 111//1 112//1 103//1
f 21//1 22//1 113//1 104//1
f 104//1 113//1 114//1 105//1
f 105//1 114//1 115//1 106//1
f 106//1 115//1 116//1 107//1
f 107//1 116//1 117//1 108//1
f 108//1 117//1 118//1 109//1
f 109//1 118//1 119//1 110//1
f 110//19 119//19 120//19 111//19
f 111//20 120//20 121//20 112//20
f 22//1 2//1 23//1 113//1
f 113//1 23//1 24//1 114//1
f 114//1 24//1 25//1 115//1
f 115//1 25//1 26//1 116//1
f 116//1 26//1 27//1 117//1
f 117//1 27//1 28//1 118//1
f 118//1 28//1 29//1 119//1
f 119//1 29//1 30//1 120//1
f 120//1 30//1 31//1 121//1
